<svg xmlns="http://www.w3.org/2000/svg" viewBox="0 0 420.38 420.38"><title>telegram</title><g id="Layer_2" data-name="Layer 2"><g id="Layer_2-2" data-name="Layer 2"><g id="Layer_1-2" data-name="Layer 1"><path d="M291.71,138.27,137.52,233.91a7,7,0,0,0-3,8L155.2,308.6a1.36,1.36,0,0,0,2.64-.25l5-44.69a7.09,7.09,0,0,1,2.33-4.48L295.76,143.72A3.41,3.41,0,0,0,291.71,138.27Z"/></g><path d="M0,60.85V359.52a60.85,60.85,0,0,0,60.85,60.86H359.52a60.86,60.86,0,0,0,60.86-60.86V60.85A60.85,60.85,0,0,0,359.52,0H60.85A60.85,60.85,0,0,0,0,60.85Zm350.41,48.38-48,229.46a15.12,15.12,0,0,1-23.75,9.1l-29.92-22a60.85,60.85,0,0,0-79.48,6.48h0a12.27,12.27,0,0,1-20.46-4.9l-16.93-53.7a60.85,60.85,0,0,0-40.8-40.07L50.71,221.72a10.25,10.25,0,0,1-.82-19.38L331,92.8A14.45,14.45,0,0,1,350.41,109.23Z"/></g></g></svg>