<svg xmlns="http://www.w3.org/2000/svg" viewBox="0 0 420.38 420.38"><title>Telegram 2</title><g id="Layer_2" data-name="Layer 2"><g id="Layer_2-2" data-name="Layer 2"><g id="Layer_1-2" data-name="Layer 1"><path d="M291.71,138.27,137.52,233.91a7,7,0,0,0-3,8L155.2,308.6a1.36,1.36,0,0,0,2.64-.25l5-44.69a7.09,7.09,0,0,1,2.33-4.48L295.76,143.72A3.41,3.41,0,0,0,291.71,138.27Z"/></g><path d="M0,36.32V384.05a36.33,36.33,0,0,0,36.32,36.33H384.05a36.34,36.34,0,0,0,36.33-36.33V36.32A36.33,36.33,0,0,0,384.05,0H36.32A36.32,36.32,0,0,0,0,36.32Zm350.41,72.91-48,229.46a15.12,15.12,0,0,1-23.75,9.1L231.6,313.24a36.31,36.31,0,0,0-47.44,3.87L155,346.92l-27-85.66a36.3,36.3,0,0,0-24.36-23.92L50.71,221.72a10.25,10.25,0,0,1-.82-19.38L331,92.8A14.45,14.45,0,0,1,350.41,109.23Z"/></g></g></svg>