<svg id="Layer_1" enable-background="new 0 0 512 512" height="512" viewBox="0 0 512 512" width="512" xmlns="http://www.w3.org/2000/svg"><g><g><g><path d="m256 30.002c-4.142 0-7.5 3.358-7.5 7.5v41.536c0 4.142 3.358 7.5 7.5 7.5s7.5-3.358 7.5-7.5v-41.536c0-4.142-3.358-7.5-7.5-7.5z" fill="#415e6f"/><circle cx="256" cy="22.501" fill="#ff7e50" r="22.5"/></g><g><path d="m256 481.998c-4.142 0-7.5-3.358-7.5-7.5v-41.536c0-4.142 3.358-7.5 7.5-7.5s7.5 3.358 7.5 7.5v41.536c0 4.142-3.358 7.5-7.5 7.5z" fill="#415e6f"/><circle cx="256" cy="489.499" fill="#ff7e50" r="22.5"/></g><g fill="#415e6f"><path d="m164.891 396.288c-4.142 0-7.5 3.358-7.5 7.5 0 15.427-3.854 26.601-11.457 33.212-10.138 8.815-24.271 7.011-24.572 6.971-4.076-.603-7.884 2.217-8.501 6.301-.618 4.096 2.201 7.917 6.296 8.536.263.04 2.38.342 5.64.342 7.245 0 20.129-1.495 30.815-10.689 11.133-9.578 16.778-24.608 16.778-44.673.001-4.142-3.357-7.5-7.499-7.5z"/><path d="m399.096 450.272c-.619-4.095-4.44-6.912-8.536-6.296-.139.02-14.261 1.865-24.433-6.886-7.671-6.6-11.561-17.805-11.561-33.302 0-4.142-3.358-7.5-7.5-7.5s-7.5 3.358-7.5 7.5c0 20.064 5.645 35.095 16.778 44.673 10.688 9.195 23.571 10.689 30.815 10.689 3.258 0 5.376-.302 5.64-.342 4.096-.618 6.915-4.44 6.297-8.536z"/></g><path d="m396.68 344.64c-9.71 49.92-68.99 88.32-140.68 88.32s-130.97-38.4-140.68-88.31z" fill="#eef0f5"/><path d="m396.68 344.64c-9.71 49.92-68.99 88.32-140.68 88.32s-130.97-38.4-140.68-88.31c9.71 36.4 68.99 64.4 140.68 64.4s130.97-28 140.68-64.41z" fill="#dae1ea"/><path d="m512 280.64c0 34.3-114.62 83.51-256 83.51-104.73 0-194.78-27-234.42-54.95-13.88-9.77-21.58-19.67-21.58-28.56 0-18.85 50.38-47.45 120.37-65.81h271.26c.41.11.83.22 1.24.33 69.35 18.37 119.13 46.74 119.13 65.48z" fill="#eef0f5"/><path d="m512 280.64c0 34.3-114.62 83.51-256 83.51-104.73 0-194.78-27-234.42-54.95 46.78 19.32 120.5 34.95 203.42 34.95 141.38 0 256-45.44 256-77.11 0-14.59-35.42-35.52-88.13-51.88 69.35 18.37 119.13 46.74 119.13 65.48z" fill="#dae1ea"/><path d="m256 256.03c-4.48 0-8.81-.04-13-.12-128.37-2.31-122.68-39-122.68-39s.07-128.91 122.68-137.42c4.19-.3 8.52-.45 13-.45 135.6 0 135.68 137.87 135.68 137.87s6.07 39.12-135.68 39.12z" fill="#81ebeb"/><path d="m256 256.03c-4.48 0-8.81-.04-13-.12 128.37-2.31 122.68-39 122.68-39s-.07-128.91-122.68-137.42c4.19-.3 8.52-.45 13-.45 135.6 0 135.68 137.87 135.68 137.87s6.07 39.12-135.68 39.12z" fill="#00cec8"/><path d="m352.11 208.813c-1.4-3.898-5.698-5.923-9.594-4.522-18.895 6.79-48.003 10.232-86.516 10.232s-67.622-3.443-86.516-10.232c-3.898-1.401-8.193.624-9.594 4.522s.624 8.193 4.522 9.594c20.526 7.376 51.341 11.116 91.588 11.116s71.063-3.74 91.588-11.116c3.899-1.401 5.923-5.696 4.522-9.594z" fill="#00cec8"/><g fill="#b9cfdf"><g><circle cx="256.5" cy="283.417" r="7.5"/><circle cx="221.5" cy="282.414" r="7.5"/><circle cx="190.5" cy="279.414" r="7.5"/><circle cx="159.5" cy="274.414" r="7.5"/><circle cx="130.5" cy="265.414" r="7.5"/><circle cx="104.5" cy="251.414" r="7.5"/><circle cx="290.5" cy="282.414" r="7.5"/><circle cx="321.5" cy="279.414" r="7.5"/><circle cx="352.5" cy="274.414" r="7.5"/><circle cx="381.5" cy="265.414" r="7.5"/><circle cx="407.5" cy="251.414" r="7.5"/></g><g><circle cx="256.026" cy="391.788" r="7.5"/><circle cx="222.026" cy="388.788" r="7.5"/><circle cx="190.026" cy="381.788" r="7.5"/><circle cx="290.026" cy="388.787" r="7.5"/><circle cx="321.026" cy="381.789" r="7.5"/></g></g></g></g></svg>