<svg id="Capa_1" enable-background="new 0 0 512 512" height="512" viewBox="0 0 512 512" width="512" xmlns="http://www.w3.org/2000/svg"><g><path d="m270.701 181.507-179.892-179.892c-2.02-2.02-5.295-2.02-7.315 0l-81.979 81.979c-2.02 2.02-2.02 5.295 0 7.315l179.888 179.888c5.282 5.282 7.053 13.1 4.66 20.177-19.892 58.829-6.164 126.519 41.203 173.104 65.294 64.216 173.312 63.024 237.238-2.554 63.833-65.483 63.323-170.315-1.531-235.169-46.583-46.583-113.788-59.959-172.225-40.149-7.028 2.382-14.799.549-20.047-4.699z" fill="#eec06b"/><path d="m183.989 273.988c1.373-6.501 3.111-12.941 5.263-19.273 2.373-6.982.468-14.71-4.746-19.924l-167.094-167.094-15.897 15.897c-2.02 2.02-2.02 5.295 0 7.315l179.888 179.888c.982.982 1.846 2.053 2.586 3.191z" fill="#e9a52d"/><path d="m467.608 425.518c-64.473 66.139-171.385 67.32-237.238 2.554-32.421-31.885-49.071-73.658-49.979-115.709-10.452 53.296 5.161 110.689 46.876 151.715 65.853 64.766 172.765 63.585 237.238-2.554 32.575-33.416 48.383-77.08 47.446-120.448-6.05 30.843-20.823 60.314-44.343 84.442z" fill="#e9a52d"/><path d="m417.672 254.602 38.33 74.246c2.913 5.668 3.072 12.343.437 18.133l-40.902 89.683c-5.198 11.393-17.773 17.448-29.92 14.419l-99.188-24.85c-7.432-1.862-13.222-7.661-15.088-15.085l-24.672-98.594c-1.552-6.175-.178-12.738 3.726-17.766l43.232-55.675c4.544-5.852 11.869-8.838 19.215-7.823l89.213 12.265c6.694.918 12.524 5.035 15.617 11.047z" fill="#a29aa5"/><path d="m402.169 425.739-99.188-24.85c-7.432-1.862-13.222-7.661-15.088-15.085l-24.672-98.594c-.709-2.82-.801-5.719-.327-8.518l-12.499 16.096c-3.904 5.028-5.278 11.591-3.726 17.766l24.672 98.594c1.866 7.424 7.657 13.223 15.088 15.085l99.188 24.85c12.146 3.029 24.722-3.026 29.92-14.419l6.336-13.893c-5.75 3.467-12.794 4.691-19.704 2.968z" fill="#8c818f"/><path d="m348.198 398.315c13.98 10.855 16.749 30.779 6.427 45.006l-58.892-14.76c-1.162-8.403.942-17.248 6.559-24.482 11.08-14.269 31.636-16.844 45.906-5.764z" fill="#8c818f"/><path d="m359.565 415.067-54.865-13.748c-.843.867-1.649 1.784-2.408 2.761-5.617 7.234-7.72 16.079-6.559 24.482l58.892 14.76c6.123-8.441 7.639-18.887 4.94-28.255z" fill="#766d78"/><path d="m446.68 310.796 9.322 18.052c2.913 5.668 3.072 12.343.437 18.133l-13.089 28.698c-7.698.518-15.603-1.693-22.175-6.796-14.27-11.08-16.855-31.625-5.774-45.895 7.645-9.847 19.794-14.131 31.279-12.192z" fill="#8c818f"/><path d="m308.226 281.182c-7.526 9.693-5.77 23.651 3.923 31.178 9.693 7.526 23.651 5.77 31.177-3.922 7.526-9.693 5.77-23.651-3.922-31.178-9.693-7.527-23.652-5.771-31.178 3.922z" fill="#8c818f"/><path d="m155.71 188.423c3.03-3.03 7.942-3.03 10.972 0l11.522 11.522c3.03 3.03 3.03 7.942 0 10.972s-7.942 3.03-10.972 0l-11.522-11.522c-3.03-3.03-3.03-7.941 0-10.972z" fill="#f4daa7"/><path d="m133.528 112.906c3.03-3.03 7.942-3.03 10.972 0l11.522 11.522c3.03 3.03 3.03 7.943 0 10.972s-7.942 3.03-10.972 0l-11.522-11.522c-3.031-3.03-3.03-7.942 0-10.972z" fill="#e9a52d"/><path d="m60.676 86.216c3.03-3.03 7.942-3.03 10.972 0l11.522 11.522c3.03 3.03 3.03 7.942 0 10.972s-7.942 3.03-10.972 0l-11.522-11.522c-3.03-3.03-3.03-7.942 0-10.972z" fill="#f4daa7"/><path d="m236.167 201.653c3.03-3.03 7.942-3.03 10.972 0l11.522 11.522c3.03 3.03 3.03 7.943 0 10.972-3.03 3.03-7.942 3.03-10.972 0l-11.522-11.522c-3.03-3.029-3.03-7.942 0-10.972z" fill="#f1cd88"/><path d="m280.711 55.064c3.03-3.03 7.942-3.03 10.972 0l171.291 171.291-10.972 10.972-171.291-171.291c-3.031-3.03-3.03-7.942 0-10.972z" fill="#eec06b"/><path d="m219.756 56.85c3.03-3.03 7.942-3.03 10.972 0l59.168 59.168c3.03 3.03 3.03 7.943 0 10.972-3.03 3.03-7.942 3.03-10.972 0l-59.168-59.168c-3.03-3.03-3.03-7.942 0-10.972z" fill="#e9a52d"/><path d="m93.582 256.688c3.03-3.03 7.942-3.03 10.972 0l42.848 42.848c3.03 3.03 3.03 7.942 0 10.972s-7.942 3.03-10.972 0l-42.848-42.848c-3.031-3.03-3.031-7.942 0-10.972z" fill="#eec06b"/><path d="m237.227 452.102-120.268-120.268c-3.03-3.03-7.942-3.03-10.972 0s-3.03 7.942 0 10.972l120.268 120.268z" fill="#e9a52d"/></g></svg>